<svg id="Capa_1" data-name="Capa 1" xmlns="http://www.w3.org/2000/svg" viewBox="0 0 203.3 203.3"><title>Prancheta 1</title><path d="M54.12,84A31.31,31.31,0,1,0,22.81,52.67,31.35,31.35,0,0,0,54.12,84Zm0-47.62A16.31,16.31,0,1,1,37.81,52.67,16.33,16.33,0,0,1,54.12,36.36Z" style="fill:#324c5d"/><path d="M66.3,92.09H42.14a30.58,30.58,0,0,0-30.55,30.55v51.81a7.5,7.5,0,1,0,15,0V122.64a15.57,15.57,0,0,1,15.55-15.55H66.3a15.57,15.57,0,0,1,15.55,15.55v51.81a7.5,7.5,0,0,0,15,0V122.64A30.58,30.58,0,0,0,66.3,92.09Z" style="fill:#324c5d"/><path d="M149.82,81.66a30.15,30.15,0,1,0-30.15-30.15A30.18,30.18,0,0,0,149.82,81.66Zm0-49A18.85,18.85,0,1,1,131,51.51,18.88,18.88,0,0,1,149.82,32.65Z" style="fill:#324c5d"/><path d="M162.35,82.62H137.49A29.4,29.4,0,0,0,108.13,112V176.8a5.65,5.65,0,0,0,11.3,0V112a18.1,18.1,0,0,1,13.68-17.53v12.11a5.64,5.64,0,0,0,5.32,5.63L131.1,166a5.65,5.65,0,0,0,2.07,5.18l13.22,10.56a5.65,5.65,0,0,0,7,0l13.23-10.56a5.65,5.65,0,0,0,2.07-5.18l-7.33-53.76a5.64,5.64,0,0,0,5.32-5.63V94.46A18.1,18.1,0,0,1,180.42,112V176.8a5.65,5.65,0,0,0,11.3,0V112A29.39,29.39,0,0,0,162.35,82.62Zm-6.92,11.3v7h-11v-7ZM149.92,170l-7.19-5.74,7.1-52.09H150l7.1,52.09Z" style="fill:#324c5d"/></svg>