<svg id="Capa_1" data-name="Capa 1" xmlns="http://www.w3.org/2000/svg" viewBox="0 0 107 203.3"><title>Prancheta 1</title><path d="M54.12,84A31.31,31.31,0,1,0,22.81,52.67,31.35,31.35,0,0,0,54.12,84Zm0-47.62A16.31,16.31,0,1,1,37.81,52.67,16.33,16.33,0,0,1,54.12,36.36Z" style="fill:#324c5d"/><path d="M66.3,92.09H42.14a30.58,30.58,0,0,0-30.55,30.55v51.81a7.5,7.5,0,1,0,15,0V122.64a15.57,15.57,0,0,1,15.55-15.55H66.3a15.57,15.57,0,0,1,15.55,15.55v51.81a7.5,7.5,0,0,0,15,0V122.64A30.58,30.58,0,0,0,66.3,92.09Z" style="fill:#324c5d"/></svg>