<svg xmlns="http://www.w3.org/2000/svg" viewBox="0 0 59.98 59.99"><title>time</title><g id="Camada_2" data-name="Camada 2"><g id="Capa_1" data-name="Capa 1"><g id="_Grupo_" data-name="&lt;Grupo&gt;"><path id="_Caminho_" data-name="&lt;Caminho&gt;" d="M30,51A21,21,0,1,1,51,30,21,21,0,0,1,30,51" style="fill:#556180"/><path id="_Caminho_2" data-name="&lt;Caminho&gt;" d="M30,15a1,1,0,0,1-1-1V12a1,1,0,1,1,2,0v2a1,1,0,0,1-1,1" style="fill:#fff"/><path id="_Caminho_3" data-name="&lt;Caminho&gt;" d="M30,49a1,1,0,0,1-1-1V46a1,1,0,0,1,2,0v2a1,1,0,0,1-1,1" style="fill:#fff"/><path id="_Caminho_4" data-name="&lt;Caminho&gt;" d="M48,31H46a1,1,0,1,1,0-2h2a1,1,0,0,1,0,2" style="fill:#fff"/><path id="_Caminho_5" data-name="&lt;Caminho&gt;" d="M14,31H12a1,1,0,1,1,0-2h2a1,1,0,0,1,0,2" style="fill:#fff"/><path id="_Caminho_composto_" data-name="&lt;Caminho composto&gt;" d="M30,33a4,4,0,1,1,4-4,4,4,0,0,1-4,4m0-6a2,2,0,1,0,2,2,2,2,0,0,0-2-2" style="fill:#fff"/><path id="_Caminho_6" data-name="&lt;Caminho&gt;" d="M30,27a1,1,0,0,1-1-1V20a1,1,0,0,1,2,0v6a1,1,0,0,1-1,1" style="fill:#fff"/><path id="_Caminho_7" data-name="&lt;Caminho&gt;" d="M19,41a1,1,0,0,1-.71-1.71l8.88-8.88a1,1,0,0,1,1.41,1.41l-8.88,8.88A1,1,0,0,1,19,41" style="fill:#fff"/><path id="_Caminho_8" data-name="&lt;Caminho&gt;" d="M1,31a1,1,0,0,1-1-1A30,30,0,0,1,50.69,8.3a1,1,0,1,1-1.38,1.45A28,28,0,0,0,2,30a1,1,0,0,1-1,1" style="fill:#d8635f"/><path id="_Caminho_9" data-name="&lt;Caminho&gt;" d="M51,10H42a1,1,0,0,1,0-2h7V1a1,1,0,0,1,2,0Z" style="fill:#d8635f"/><path id="_Caminho_composto_2" data-name="&lt;Caminho composto&gt;" d="M29.42,60a1,1,0,1,1,1-1,1,1,0,0,1-1,1Zm2-1a1,1,0,1,1,2-.16,1,1,0,0,1-.91,1.07h-.08a1,1,0,0,1-1-.92m-5.11.8h0a1,1,0,1,1,.12,0Zm8.09-1.1a1,1,0,1,1,1.17.8h-.18a1,1,0,0,1-1-.81m-11.15.56a1,1,0,1,1,.45-2,1,1,0,0,1-.22,2,.9.9,0,0,1-.23,0m14.09-1.17A1,1,0,0,1,38,56.83a1,1,0,1,1-.67,1.24m-17.07.32a1,1,0,1,1,.33,0,1.26,1.26,0,0,1-.33,0m19.93-1.23a1,1,0,1,1,1.31.54,1.07,1.07,0,0,1-.39.07,1,1,0,0,1-.92-.61m-22.81.07a1,1,0,0,1-.48-1.33,1,1,0,1,1,.9,1.42,1,1,0,0,1-.42-.09M43,56a1,1,0,1,1,1.35.4.91.91,0,0,1-.47.13A1,1,0,0,1,43,56m-28.3-.17a1,1,0,1,1,.51.14,1,1,0,0,1-.51-.14m30.91-1.31a1,1,0,1,1,.82.43,1,1,0,0,1-.82-.43M12.1,54.06h0a1,1,0,1,1,1.19-1.61,1,1,0,0,1,.21,1.4,1,1,0,0,1-.81.4,1,1,0,0,1-.59-.19M48,52.73a1,1,0,1,1,.76.35,1,1,0,0,1-.76-.35M9.71,52.08h0a1,1,0,0,1,1.35-1.48h0A1,1,0,0,1,11.12,52a1,1,0,0,1-.74.32,1,1,0,0,1-.67-.26m40.56-1.34a1,1,0,1,1,1.41,0,1,1,0,0,1-1.41,0M7.54,49.86a1,1,0,1,1,.75.34,1,1,0,0,1-.75-.34M52.3,48.54a1,1,0,1,1,.62.21,1,1,0,0,1-.62-.21M5.6,47.44a1,1,0,1,1,1.4.23,1,1,0,0,1-.58.19,1,1,0,0,1-.82-.42m48.5-1.3a1,1,0,1,1,1.38-.32,1,1,0,0,1-.85.47,1,1,0,0,1-.53-.15M3.93,44.83a1,1,0,0,1,1.73-1h0a1,1,0,0,1-.38,1.36,1,1,0,0,1-.49.13,1,1,0,0,1-.87-.5m51.71-1.26a1,1,0,1,1,.44.1,1,1,0,0,1-.44-.1M2.53,42.06a1,1,0,1,1,1.32.51,1,1,0,0,1-.4.09,1,1,0,0,1-.92-.6m54.38-1.21a1,1,0,1,1,.34.06,1,1,0,0,1-.34-.06M1.43,39.16a1,1,0,0,1,.65-1.26,1,1,0,0,1,1.25.65,1,1,0,0,1-.64,1.26,1.1,1.1,0,0,1-.31,0,1,1,0,0,1-1-.69M57.89,38a1,1,0,0,1,.49-2,1,1,0,0,1-.25,2l-.24,0M.64,36.16a1,1,0,1,1,1.95-.41,1,1,0,0,1-.77,1.18.75.75,0,0,1-.21,0,1,1,0,0,1-1-.79m57.93-1.07A1,1,0,0,1,57.72,34a1,1,0,1,1,1,1.14h-.14m-58.41-2A1,1,0,0,1,1,32a1,1,0,1,1,.21,2H1.15a1,1,0,0,1-1-.9m58.78-1a1,1,0,1,1,1-1,1,1,0,0,1-1,1ZM0,30a1,1,0,1,1,1,1,1,1,0,0,1-1-1" style="fill:#d8635f"/></g></g></g></svg>