<svg xmlns="http://www.w3.org/2000/svg" viewBox="0 0 83.58 161.56"><title>Ativo 1</title><g id="Camada_2" data-name="Camada 2"><g id="Capa_1" data-name="Capa 1"><path d="M41.69,60.3A30.15,30.15,0,1,0,11.54,30.15,30.18,30.18,0,0,0,41.69,60.3Zm0-49A18.85,18.85,0,1,1,22.84,30.15,18.88,18.88,0,0,1,41.69,11.3Z" style="fill:#324c5d"/><path d="M54.22,61.26H29.36A29.4,29.4,0,0,0,0,90.62v64.82a5.65,5.65,0,1,0,11.3,0V90.62A18.1,18.1,0,0,1,25,73.1V85.2a5.64,5.64,0,0,0,5.32,5.63L23,144.59A5.65,5.65,0,0,0,25,149.77l13.22,10.56a5.65,5.65,0,0,0,7,0l13.23-10.56a5.65,5.65,0,0,0,2.07-5.18L53.28,90.84A5.64,5.64,0,0,0,58.6,85.2V73.1A18.1,18.1,0,0,1,72.28,90.62v64.82a5.65,5.65,0,1,0,11.3,0V90.62A29.39,29.39,0,0,0,54.22,61.26ZM47.3,72.56v7h-11v-7Zm-5.51,76.13-7.19-5.74,7.1-52.09h.18L49,142.94Z" style="fill:#324c5d"/></g></g></svg>