<svg xmlns="http://www.w3.org/2000/svg" viewBox="0 0 350.37 268.17"><title>vote</title><g id="Camada_2" data-name="Camada 2"><g id="Layer_1" data-name="Layer 1"><path d="M349.92,171.16V153.28h-5.76c-20.27-38.58-88.22-67-169-67s-148.71,28.38-169,67H0v26.3H.12c2.4,49.13,79.83,88.58,175.06,88.58,96.74,0,175.17-40.71,175.17-90.92A47.8,47.8,0,0,0,349.92,171.16Z" style="fill:#afafaf"/><path d="M175.17,86.31c-80.75,0-148.71,28.38-169,67H0v26.3H.12c2.4,49.13,79.83,88.58,175.06,88.58Z" style="fill:#99999a"/><ellipse cx="175.19" cy="157.05" rx="175.17" ry="90.92" style="fill:#c1c1c1"/><path d="M0,157C0,106.82,78.43,66.1,175.17,66.1V248C78.43,248,0,207.25,0,157Z" style="fill:#afafaf"/><ellipse cx="175.19" cy="136.17" rx="122.13" ry="63.39" style="fill:#eb5453"/><path d="M53,136.17V63.4s80,9.38,122.13,9.38c40.51,0,122.13-9.38,122.13-9.38v72.77c0,35-54.68,63.39-122.13,63.39S53,171.18,53,136.17Z" style="fill:#da494a"/><path d="M53,136.17V63.4s80,9.38,122.13,9.38V199.56C107.73,199.56,53,171.18,53,136.17Z" style="fill:#d04646"/><ellipse cx="175.19" cy="63.39" rx="122.13" ry="63.39" style="fill:#eb5453"/><path d="M53,63.4H297.3c0,35-54.68,63.39-122.13,63.39S53,98.41,53,63.4Z" style="fill:#e95e5d"/><path d="M53,63.4C53,28.39,107.73,0,175.17,0V126.79C107.73,126.79,53,98.41,53,63.4Z" style="fill:#dc494a"/><path d="M53,63.4s54.68.89,122.13.89v62.5C107.73,126.79,53,98.41,53,63.4Z" style="fill:#d64747"/><path d="M92.55,49.47l10.93,16.75,11-16.87a21.21,21.21,0,0,1,1.29-1.85,3.5,3.5,0,0,1,1.41-.94,7.16,7.16,0,0,1,2.71-.41,8.11,8.11,0,0,1,2.32.32,4.61,4.61,0,0,1,1.67.86,1.49,1.49,0,0,1,.61,1.08,2,2,0,0,1-.2.81,5.59,5.59,0,0,1-.5.85l-.59.86L111.49,67.26c-.41.63-.83,1.22-1.25,1.79a7.45,7.45,0,0,1-1.45,1.48,6.58,6.58,0,0,1-2.19,1,11.75,11.75,0,0,1-3.34.41,12,12,0,0,1-3.35-.4,6.63,6.63,0,0,1-2.21-1.05A8,8,0,0,1,96.23,69c-.42-.56-.83-1.15-1.25-1.77L83.49,51.08c-.2-.3-.4-.58-.61-.87a4.59,4.59,0,0,1-.52-.92,2.15,2.15,0,0,1-.22-.83c0-.58.45-1.11,1.35-1.59a7.2,7.2,0,0,1,3.39-.71,6,6,0,0,1,3.54.8A9.1,9.1,0,0,1,92.55,49.47Z" style="fill:#f6ebd3"/><path d="M150.47,46.14a46.38,46.38,0,0,1,12.89,1.57,18,18,0,0,1,8.15,4.48,9.84,9.84,0,0,1,1.26,12.09,12.76,12.76,0,0,1-4.55,4.11,25.11,25.11,0,0,1-7.43,2.66,49.87,49.87,0,0,1-10.11.92A49.46,49.46,0,0,1,140.53,71,25.79,25.79,0,0,1,133,68.36a12.65,12.65,0,0,1-4.52-4.14A9.59,9.59,0,0,1,127,59a9.36,9.36,0,0,1,1.6-5.28,13,13,0,0,1,4.62-4.09A26,26,0,0,1,140.59,47,49.55,49.55,0,0,1,150.47,46.14ZM164.37,59a7.1,7.1,0,0,0-1.72-4.75,10.47,10.47,0,0,0-4.89-3,23.68,23.68,0,0,0-7.29-1,24.43,24.43,0,0,0-5.42.57,14.66,14.66,0,0,0-4.28,1.66,8.2,8.2,0,0,0-2.83,2.78,7.12,7.12,0,0,0-1,3.81,7.3,7.3,0,0,0,1,3.85,8.33,8.33,0,0,0,2.92,2.86,15,15,0,0,0,4.35,1.7,24.21,24.21,0,0,0,5.38.56,23.18,23.18,0,0,0,6.9-1,11,11,0,0,0,5-3A7.08,7.08,0,0,0,164.37,59Z" style="fill:#f6ebd3"/><path d="M209.74,50.75H199.07V68.89a2.5,2.5,0,0,1-1.35,2.32,7,7,0,0,1-3.49.76,7.15,7.15,0,0,1-3.54-.77,2.49,2.49,0,0,1-1.37-2.32V50.75H178.65a9.26,9.26,0,0,1-3.72-.57c-.81-.38-1.22-.88-1.22-1.51s.42-1.16,1.27-1.53a9.39,9.39,0,0,1,3.67-.56h31.09a9.42,9.42,0,0,1,3.77.58c.82.39,1.23.89,1.23,1.51s-.42,1.13-1.26,1.51A9.42,9.42,0,0,1,209.74,50.75Z" style="fill:#f6ebd3"/><path d="M250.67,50.47h-22v6.14h20.29a8.25,8.25,0,0,1,3.34.52c.74.34,1.1.8,1.1,1.37s-.36,1-1.09,1.39a7.89,7.89,0,0,1-3.35.54H228.64v7.11h22.79a8.6,8.6,0,0,1,3.48.55c.77.37,1.16.86,1.16,1.48s-.39,1.07-1.16,1.44a8.52,8.52,0,0,1-3.48.55H224.86a10.61,10.61,0,0,1-4.6-.73,2.48,2.48,0,0,1-1.4-2.37V49.67a2.56,2.56,0,0,1,.62-1.79,3.71,3.71,0,0,1,2-1,15.22,15.22,0,0,1,3.41-.32h25.81a8.56,8.56,0,0,1,3.48.54c.76.36,1.13.83,1.13,1.41s-.37,1.07-1.13,1.43A8.49,8.49,0,0,1,250.67,50.47Z" style="fill:#f6ebd3"/></g></g></svg>